<?xml version="1.0" standalone="no"?>
<!DOCTYPE svg PUBLIC "-//W3C//DTD SVG 20010904//EN"
 "http://www.w3.org/TR/2001/REC-SVG-20010904/DTD/svg10.dtd">
<svg version="1.0" xmlns="http://www.w3.org/2000/svg"
 width="128.000000pt" height="128.000000pt" viewBox="0 0 128.000000 128.000000"
 preserveAspectRatio="xMidYMid meet">

<g transform="translate(0.000000,128.000000) scale(0.100000,-0.100000)"
fill="#000000" stroke="none">
<path d="M480 1225 l0 -55 56 0 55 0 -3 -51 -3 -51 -74 -19 c-41 -10 -98 -32
-126 -48 l-52 -29 -41 41 -42 42 -37 -38 -37 -37 38 -39 39 -40 -31 -39 c-81
-102 -116 -216 -110 -356 4 -84 10 -113 36 -174 59 -141 164 -242 308 -299 60
-23 84 -27 179 -27 135 -1 210 21 312 93 83 59 144 135 185 233 40 95 50 240
23 333 -21 73 -58 148 -98 198 l-30 38 39 40 38 39 -37 37 -37 38 -42 -42 -41
-41 -52 29 c-28 16 -85 38 -126 48 l-74 19 -3 51 -3 51 55 0 56 0 0 55 0 55
-160 0 -160 0 0 -55z m265 -280 c84 -22 150 -61 205 -122 154 -169 154 -414
-1 -578 -87 -92 -185 -135 -309 -135 -124 0 -222 43 -309 135 -155 164 -156
409 -1 578 104 114 264 161 415 122z"/>
<path d="M640 691 l0 -161 -161 0 -162 0 7 -42 c22 -135 124 -241 259 -268 99
-20 196 10 276 85 69 64 95 128 96 230 0 68 -4 89 -28 137 -46 94 -140 163
-238 175 l-49 6 0 -162z"/>
</g>
</svg>
